<svg width="20" height="20" viewBox="0 0 20 20" fill="none" xmlns="http://www.w3.org/2000/svg">
<path d="M15 3.7333C13.6739 2.40722 11.8754 1.66223 10 1.66223C8.12466 1.66223 6.32611 2.40722 5.00002 3.7333C3.67394 5.05938 2.92896 6.85794 2.92896 8.7333C2.92896 10.6087 3.67394 12.4072 5.00002 13.7333L9.39169 18.1333C9.46916 18.2114 9.56133 18.2734 9.66288 18.3157C9.76442 18.358 9.87335 18.3798 9.98336 18.3798C10.0934 18.3798 10.2023 18.358 10.3038 18.3157C10.4054 18.2734 10.4976 18.2114 10.575 18.1333L15 13.6916C16.3206 12.3711 17.0624 10.58 17.0624 8.71247C17.0624 6.84492 16.3206 5.05386 15 3.7333ZM13.8084 12.5L10 16.325L6.19169 12.5C5.43931 11.7469 4.92709 10.7877 4.71977 9.74354C4.51245 8.69941 4.61935 7.61725 5.02694 6.63387C5.43454 5.65048 6.12454 4.81001 7.00971 4.2187C7.89489 3.62739 8.93551 3.31178 10 3.31178C11.0645 3.31178 12.1052 3.62739 12.9903 4.2187C13.8755 4.81001 14.5655 5.65048 14.9731 6.63387C15.3807 7.61725 15.4876 8.69941 15.2803 9.74354C15.073 10.7877 14.5607 11.7469 13.8084 12.5ZM7.50002 6.17497C6.82728 6.84978 6.44952 7.76377 6.44952 8.71663C6.44952 9.66949 6.82728 10.5835 7.50002 11.2583C7.99982 11.759 8.63635 12.1009 9.32973 12.2411C10.0231 12.3814 10.7425 12.3138 11.3976 12.0468C12.0527 11.7797 12.6143 11.3252 13.0121 10.7402C13.4098 10.1551 13.626 9.46569 13.6334 8.7583C13.6371 8.28597 13.5461 7.81768 13.3658 7.38112C13.1854 6.94456 12.9194 6.5486 12.5834 6.21663C12.2531 5.87878 11.8593 5.60958 11.4245 5.42452C10.9898 5.23946 10.5228 5.1422 10.0504 5.13832C9.57791 5.13445 9.10935 5.22405 8.67167 5.40196C8.23398 5.57986 7.83579 5.84257 7.50002 6.17497ZM11.4084 10.075C11.0926 10.3956 10.6752 10.5966 10.2276 10.6435C9.78006 10.6905 9.33008 10.5805 8.95461 10.3324C8.57915 10.0843 8.30152 9.7135 8.1692 9.28337C8.03687 8.85324 8.05806 8.3905 8.22915 7.97426C8.40024 7.55803 8.71061 7.21415 9.10718 7.00141C9.50375 6.78868 9.9619 6.72031 10.4033 6.80798C10.8447 6.89565 11.2419 7.13393 11.5271 7.48207C11.8123 7.83022 11.9677 8.26661 11.9667 8.71663C11.9546 9.23102 11.7388 9.71957 11.3667 10.075H11.4084Z" fill="white"/>
</svg>
